# xmcd CD database file generated by Grip 3.3.1
# 
# Track frame offsets:
#       150
#       6290
#       16850
#       34232
#       41350
#       56330
#       68557
#       76272
#       96025
#       108240
#       113645
#       126310
#       130905
#       140275
#       152760
#       158762
#       172640
#       188377
# 
# Disc length: 2701 seconds
# 
# Revision: 2
# Processed by: cddbd v1.5.2PL0 Copyright (c) Steve Scherf et al.
# Submitted via: Grip 3.3.1
# 
DISCID=cd0a8b12
DTITLE=Velha Guarda da Portela - Tudo Azul
DYEAR=2000
DGENRE=Samba
TTITLE0=Portela desde que Eu Nasci
TTITLE1=O Mundo É Assim
TTITLE2=Nascer e Florescer
TTITLE3=Vai Saudade
TTITLE4=Sabiá Cantador
TTITLE5=A Noite que Tudo Esconde
TTITLE6=Eu Te Quero
TTITLE7=Volta Meu Amor
TTITLE8=Falsas Juras
TTITLE9=Tentação
TTITLE10=Você Me Abandonou
TTITLE11=Vem Amor
TTITLE12=Benjamin
TTITLE13=Tudo Azul
TTITLE14=Minha Vontade
TTITLE15=Sempre Teu Amor
TTITLE16=Corri pra Ver
TTITLE17=Lenço
EXTD=
EXTT0=
EXTT1=
EXTT2=
EXTT3=
EXTT4=
EXTT5=
EXTT6=
EXTT7=
EXTT8=
EXTT9=
EXTT10=
EXTT11=
EXTT12=
EXTT13=
EXTT14=
EXTT15=
EXTT16=
EXTT17=
PLAYORDER=
